#N canvas 3061 0 770 464 12;
#X obj 37 49 unpackOSC;
#X obj 37 21 netreceive -u -b 50000;
#X obj 37 79 routeOSC /ZIGSIM/neonald/accel;
#X obj 35 115 unpack f f f;
#X floatatom 38 184 5 0 0 0 - - - 0;
#X floatatom 153 184 5 0 0 0 - - - 0;
#X floatatom 277 183 5 0 0 0 - - - 0;
#X text 45 166 ax;
#X text 158 164 ay;
#X text 286 165 az;
#X obj 168 217 s accel_y;
#X obj 53 217 s accel_x;
#X obj 292 216 s accel_z;
#X obj 30 249 *;
#X obj 138 247 *;
#X obj 264 248 *;
#X obj 68 286 +;
#X obj 138 336 +;
#X obj 139 365 sqrt;
#X floatatom 139 405 5 0 0 0 - - - 0;
#X text 149 387 a;
#X obj 139 428 s accel_a;
#X obj 215 398 hsl 162 19 0 127 0 0 empty empty empty -2 -10 0 12 #fcfcfc #000000 #000000 0 1;
#X obj 385 115 unpack f f f;
#X floatatom 388 184 5 0 0 0 - - - 0;
#X floatatom 503 184 5 0 0 0 - - - 0;
#X floatatom 627 183 5 0 0 0 - - - 0;
#X obj 380 249 *;
#X obj 488 248 *;
#X obj 612 250 *;
#X obj 418 286 +;
#X obj 488 336 +;
#X obj 489 365 sqrt;
#X floatatom 489 405 5 0 0 0 - - - 0;
#X obj 565 398 hsl 162 19 0 127 0 0 empty empty empty -2 -10 0 12 #fcfcfc #000000 #000000 0 1;
#X obj 387 79 routeOSC /ZIGSIM/neonald/gyro;
#X text 395 166 gx;
#X text 508 164 gy;
#X text 636 165 gz;
#X obj 403 217 s gyro_x;
#X obj 518 217 s gyro_y;
#X obj 642 216 s gyro_z;
#X text 499 387 g;
#X obj 489 428 s gyro_g;
#X connect 0 0 2 0;
#X connect 0 0 35 0;
#X connect 1 0 0 0;
#X connect 2 0 3 0;
#X connect 3 0 4 0;
#X connect 3 1 5 0;
#X connect 3 2 6 0;
#X connect 4 0 11 0;
#X connect 4 0 13 0;
#X connect 4 0 13 1;
#X connect 5 0 10 0;
#X connect 5 0 14 1;
#X connect 5 0 14 0;
#X connect 6 0 12 0;
#X connect 6 0 15 0;
#X connect 6 0 15 1;
#X connect 13 0 16 0;
#X connect 14 0 16 1;
#X connect 15 0 17 1;
#X connect 16 0 17 0;
#X connect 17 0 18 0;
#X connect 18 0 19 0;
#X connect 19 0 21 0;
#X connect 19 0 22 0;
#X connect 23 0 24 0;
#X connect 23 1 25 0;
#X connect 23 2 26 0;
#X connect 24 0 27 0;
#X connect 24 0 27 1;
#X connect 24 0 39 0;
#X connect 25 0 28 1;
#X connect 25 0 28 0;
#X connect 25 0 40 0;
#X connect 26 0 29 0;
#X connect 26 0 29 1;
#X connect 26 0 41 0;
#X connect 27 0 30 0;
#X connect 28 0 30 1;
#X connect 29 0 31 1;
#X connect 30 0 31 0;
#X connect 31 0 32 0;
#X connect 32 0 33 0;
#X connect 33 0 34 0;
#X connect 33 0 43 0;
#X connect 35 0 23 0;
