#N canvas 619 65 1160 784 12;
#X obj -181 -10 bng 19 250 50 0 empty empty empty 0 -10 0 12 #fcfcfc #000000 #000000;
#X obj -181 14 openpanel;
#X msg -181 38 read -resize \$1 sf1;
#X obj -181 62 soundfiler;
#X obj 264 21 bng 19 250 50 0 empty empty empty 0 -10 0 12 #fcfcfc #000000 #000000;
#X obj 264 44 tabplay~ sf1;
#X msg 291 21 stop;
#X obj 412 616 *~;
#X obj 403 684 dac~;
#X obj 562 570 vsl 19 162 0 1 0 0 empty empty amp 0 -9 0 12 #fcfcfc #000000 #000000 0 1;
#N canvas 0 50 450 250 (subpatch) 0;
#X array sf1 818176 float 2;
#X coords 0 1 818176 -1 200 140 1;
#X restore 4 136 graph;
#X obj 529 78 *~;
#X obj 357 443 hsl 162 19 0 1 0 0 empty empty Dry/Wet -2 -10 0 12 #fcfcfc #000000 #000000 0 1;
#X floatatom 351 539 5 0 0 0 dry - - 0;
#X floatatom 423 540 5 0 0 0 wet - - 0;
#X obj 351 491 * -1;
#X obj 351 515 + 1;
#X obj 525 568 *~;
#X obj 262 568 *~;
#X obj 481 46 hsl 162 19 0 1 0 0 empty empty input -2 -10 0 12 #fcfcfc #000000 #000000 0 1;
#X obj 331 338 nn~ rave_whoosh_rt.ts;
#X obj 686 420 nn~ rave_whoosh_rt.ts encode;
#X obj 686 503 nn~ rave_whoosh_rt.ts decode;
#X obj 683 63 unpackOSC;
#X obj 683 35 netreceive -u -b 50000;
#X obj 683 87 routeOSC /ZIGSIM/neonald/accel;
#X obj 683 132 unpack f f f;
#X obj 704 191 vsl 19 162 0 127 0 0 empty empty empty 0 -9 0 12 #fcfcfc #000000 #000000 0 1;
#X obj 768 192 vsl 19 162 0 127 0 0 empty empty empty 0 -9 0 12 #fcfcfc #000000 #000000 0 1;
#X obj 831 194 vsl 19 162 0 127 0 0 empty empty empty 0 -9 0 12 #fcfcfc #000000 #000000 0 1;
#X floatatom 704 371 5 0 0 0 - - - 0;
#X obj 686 467 *~;
#X obj 750 470 *~;
#X obj 813 472 *~;
#X obj 879 472 *~;
#X floatatom 768 371 5 0 0 0 - - - 0;
#X floatatom 831 371 5 0 0 0 - - - 0;
#X floatatom 897 372 5 0 0 0 - - - 0;
#X obj 897 194 vsl 19 162 0 127 0 0 empty empty empty 0 -9 0 12 #fcfcfc #000000 #000000 0 1;
#X obj 709 548 nn~ rave_whoosh_rt.ts decode;
#X connect 0 0 1 0;
#X connect 1 0 2 0;
#X connect 2 0 3 0;
#X connect 4 0 5 0;
#X connect 5 0 18 0;
#X connect 5 0 11 0;
#X connect 6 0 5 0;
#X connect 7 0 8 0;
#X connect 7 0 8 1;
#X connect 9 0 7 1;
#X connect 12 0 14 0;
#X connect 12 0 15 0;
#X connect 13 0 18 1;
#X connect 14 0 17 1;
#X connect 15 0 16 0;
#X connect 16 0 13 0;
#X connect 17 0 7 0;
#X connect 18 0 7 0;
#X connect 19 0 11 1;
#X connect 21 0 31 0;
#X connect 21 1 32 0;
#X connect 21 2 33 0;
#X connect 21 3 34 0;
#X connect 22 0 17 0;
#X connect 23 0 25 0;
#X connect 24 0 23 0;
#X connect 25 0 26 0;
#X connect 26 0 27 0;
#X connect 26 0 28 0;
#X connect 26 1 29 0;
#X connect 26 1 38 0;
#X connect 27 0 30 0;
#X connect 28 0 35 0;
#X connect 29 0 36 0;
#X connect 30 0 31 1;
#X connect 31 0 22 0;
#X connect 32 0 22 1;
#X connect 33 0 22 2;
#X connect 34 0 22 3;
#X connect 35 0 32 1;
#X connect 36 0 33 1;
#X connect 37 0 34 1;
#X connect 38 0 37 0;
