#N canvas 2780 370 594 575 12;
#X obj 29 8 bng 19 250 50 0 empty empty empty 0 -10 0 12 #fcfcfc #000000 #000000;
#X obj 29 32 openpanel;
#N canvas 0 50 450 250 (subpatch) 0;
#X array gg-sample 353575 float 2;
#X coords 0 1 353575 -1 200 140 1 0 0;
#X restore 287 341 graph;
#X obj 29 80 soundfiler;
#X obj 68 414 output~;
#X obj 81 106 bng 19 250 50 0 empty empty empty 0 -10 0 12 #fcfcfc #000000 #000000;
#X msg 16 139 stop;
#X obj 83 362 *~;
#X floatatom 144 344 5 0 0 0 - - - 0;
#X obj 83 225 lop~;
#X obj 82 282 *~;
#X obj 155 192 mtof;
#X obj 309 208 hsl 162 19 0 1 0 0 empty empty empty -2 -10 0 12 #fcfcfc #000000 #000000 0 1;
#X obj 307 30 r whooshValue;
#X obj 232 156 * 127;
#X obj 310 60 hsl 162 19 0 1 0 0 empty empty empty -2 -10 0 12 #fcfcfc #000000 #000000 0 1;
#X obj 306 172 r whooshValueEasing;
#X obj 307 113 spigot;
#X obj 346 90 tgl 19 0 empty empty empty 0 -10 0 12 #fcfcfc #000000 #000000 0 1;
#X obj 306 257 spigot;
#X obj 345 234 tgl 19 0 empty empty empty 0 -10 0 12 #fcfcfc #000000 #000000 0 1;
#X msg 143 313 1;
#X obj 143 287 loadbang;
#X msg 29 56 read -resize \$1 gg-sample;
#X obj 81 133 tabplay~ gg-sample;
#X connect 0 0 1 0;
#X connect 1 0 23 0;
#X connect 5 0 24 0;
#X connect 6 0 24 0;
#X connect 7 0 4 0;
#X connect 7 0 4 1;
#X connect 8 0 7 1;
#X connect 9 0 10 0;
#X connect 10 0 7 0;
#X connect 11 0 9 1;
#X connect 12 0 19 0;
#X connect 13 0 15 0;
#X connect 14 0 11 0;
#X connect 15 0 14 0;
#X connect 15 0 17 0;
#X connect 16 0 12 0;
#X connect 17 0 10 1;
#X connect 18 0 17 1;
#X connect 19 0 10 1;
#X connect 20 0 19 1;
#X connect 21 0 8 0;
#X connect 22 0 21 0;
#X connect 23 0 3 0;
#X connect 24 0 9 0;
