#N canvas 57 352 594 575 12;
#X obj 29 8 bng 19 250 50 0 empty empty empty 0 -10 0 12 #fcfcfc #000000 #000000;
#X obj 29 32 openpanel;
#N canvas 0 50 450 250 (subpatch) 0;
#X array sample 818176 float 2;
#X coords 0 1 818176 -1 200 140 1;
#X restore 287 341 graph;
#X obj 29 80 soundfiler;
#X msg 29 56 read -resize \$1 sample;
#X obj 68 414 output~;
#X obj 81 133 tabplay~ sample;
#X obj 81 106 bng 19 250 50 0 empty empty empty 0 -10 0 12 #fcfcfc #000000 #000000;
#X msg 16 139 stop;
#X obj 83 362 *~;
#X floatatom 145 388 5 0 0 0 - - - 0;
#X obj 83 225 lop~;
#X obj 83 269 *~;
#X obj 155 192 mtof;
#X obj 307 262 hsl 162 19 0 1 0 0 empty empty empty -2 -10 0 12 #fcfcfc #000000 #000000 0 1;
#X obj 305 84 r whooshValue;
#X obj 232 156 * 127;
#X obj 308 114 hsl 162 19 0 1 0 0 empty empty empty -2 -10 0 12 #fcfcfc #000000 #000000 0 1;
#X obj 304 226 r whooshValueEasing;
#X connect 0 0 1 0;
#X connect 1 0 4 0;
#X connect 4 0 3 0;
#X connect 6 0 11 0;
#X connect 7 0 6 0;
#X connect 8 0 6 0;
#X connect 9 0 5 0;
#X connect 9 0 5 1;
#X connect 10 0 9 1;
#X connect 11 0 12 0;
#X connect 12 0 9 0;
#X connect 13 0 11 1;
#X connect 14 0 12 1;
#X connect 15 0 17 0;
#X connect 16 0 13 0;
#X connect 17 0 16 0;
#X connect 18 0 14 0;
