#N canvas 834 308 724 591 12;
#X obj 311 314 hsl 162 19 0 70 0 0 empty empty Cutoff\ Freq -2 -10 0 12 #fcfcfc #000000 #000000 0 1;
#X obj 384 333 r accel_a;
#X obj 538 230 hsl 162 19 0 70 0 0 empty empty Cutoff\ Freq -2 -10 0 12 #fcfcfc #000000 #000000 0 1;
#X obj 308 338 *;
#X obj 535 254 *;
#X text 42 171 gyro;
#X obj 615 249 r gyro_g;
#X obj 285 537 s whooshValue;
#X obj 285 469 /;
#X msg 183 435 70;
#X text 317 470 0~1 range mapping;
#X text 175 413 length;
#X obj 15 12 loadbang;
#X obj 285 438 clip 0 70;
#N canvas 736 210 470 586 easing 0;
#X obj 37 37 inlet;
#X msg 121 184 0.5;
#X obj 76 234 > 0.001;
#X obj 76 258 tgl 19 0 empty empty empty 0 -10 0 12 #fcfcfc #000000 #000000 0 1;
#X floatatom 135 484 5 0 0 0 - - - 0;
#X obj 37 332 spigot;
#X floatatom 377 299 5 0 0 0 - - - 0;
#X text 179 482 peak;
#X text 416 301 down;
#X obj 377 259 spigot;
#X obj 377 223 - 1;
#X obj 285 303 + 0.001;
#X obj 267 60 loadbang;
#X obj 267 84 tgl 19 0 empty empty empty 0 -10 0 12 #fcfcfc #000000 #000000 0 1;
#X obj 121 149 loadbang;
#X obj 135 455 clip 0 1;
#X obj 135 424 expr $f2-$f3;
#X obj 267 108 metro 10;
#X msg 285 272 0.0003;
#X obj 132 534 outlet;
#X floatatom 337 373 5 0 0 0 - - - 0;
#X connect 0 0 2 0;
#X connect 0 0 5 0;
#X connect 1 0 2 1;
#X connect 2 0 3 0;
#X connect 3 0 5 1;
#X connect 3 0 9 1;
#X connect 3 0 10 0;
#X connect 4 0 19 0;
#X connect 4 0 20 0;
#X connect 5 0 16 1;
#X connect 6 0 11 1;
#X connect 6 0 16 2;
#X connect 9 0 6 0;
#X connect 10 0 9 0;
#X connect 11 0 6 0;
#X connect 12 0 13 0;
#X connect 13 0 17 0;
#X connect 14 0 1 0;
#X connect 15 0 4 0;
#X connect 16 0 15 0;
#X connect 17 0 18 0;
#X connect 17 0 16 0;
#X connect 18 0 11 0;
#X connect 20 0 16 1;
#X connect 20 0 2 1;
#X restore 410 505 pd easing;
#X obj 410 534 s whooshValueEasing;
#N canvas 32 222 450 300 selectOSCValue 0;
#X obj 254 10 inlet;
#X obj 264 20 inlet;
#X obj 274 30 inlet;
#X obj 284 40 inlet;
#X obj 294 50 inlet;
#X obj 304 60 inlet;
#X obj 314 70 inlet;
#X obj 324 80 inlet;
#X floatatom 37 228 5 0 0 0 - - - 0;
#X msg 144 50 0;
#X msg 34 101 1;
#X msg 44 111 1;
#X msg 54 121 1;
#X msg 64 131 1;
#X msg 74 141 1;
#X msg 84 151 1;
#X msg 94 161 1;
#X msg 104 171 1;
#X msg 154 60 0;
#X msg 164 70 0;
#X msg 174 80 0;
#X msg 184 90 0;
#X msg 194 100 0;
#X msg 204 110 0;
#X msg 214 120 0;
#X floatatom 74 228 5 0 0 0 - - - 0;
#X floatatom 115 228 5 0 0 0 - - - 0;
#X floatatom 160 229 5 0 0 0 - - - 0;
#X floatatom 202 229 5 0 0 0 - - - 0;
#X floatatom 250 228 5 0 0 0 - - - 0;
#X floatatom 292 226 5 0 0 0 - - - 0;
#X floatatom 337 225 5 0 0 0 - - - 0;
#X obj 34 261 outlet;
#X obj 81 261 outlet;
#X obj 132 261 outlet;
#X obj 179 261 outlet;
#X obj 224 262 outlet;
#X obj 275 263 outlet;
#X obj 322 263 outlet;
#X obj 370 263 outlet;
#X connect 0 0 10 0;
#X connect 0 0 18 0;
#X connect 0 0 19 0;
#X connect 0 0 20 0;
#X connect 0 0 21 0;
#X connect 0 0 22 0;
#X connect 0 0 23 0;
#X connect 0 0 24 0;
#X connect 1 0 11 0;
#X connect 1 0 9 0;
#X connect 1 0 19 0;
#X connect 1 0 20 0;
#X connect 1 0 21 0;
#X connect 1 0 22 0;
#X connect 1 0 23 0;
#X connect 1 0 24 0;
#X connect 2 0 12 0;
#X connect 2 0 9 0;
#X connect 2 0 18 0;
#X connect 2 0 20 0;
#X connect 2 0 21 0;
#X connect 2 0 22 0;
#X connect 2 0 23 0;
#X connect 2 0 24 0;
#X connect 3 0 13 0;
#X connect 3 0 9 0;
#X connect 3 0 18 0;
#X connect 3 0 19 0;
#X connect 3 0 21 0;
#X connect 3 0 22 0;
#X connect 3 0 23 0;
#X connect 3 0 24 0;
#X connect 4 0 14 0;
#X connect 4 0 9 0;
#X connect 4 0 18 0;
#X connect 4 0 19 0;
#X connect 4 0 20 0;
#X connect 4 0 22 0;
#X connect 4 0 23 0;
#X connect 4 0 24 0;
#X connect 5 0 15 0;
#X connect 5 0 9 0;
#X connect 5 0 18 0;
#X connect 5 0 19 0;
#X connect 5 0 20 0;
#X connect 5 0 21 0;
#X connect 5 0 23 0;
#X connect 5 0 24 0;
#X connect 6 0 16 0;
#X connect 6 0 9 0;
#X connect 6 0 18 0;
#X connect 6 0 19 0;
#X connect 6 0 20 0;
#X connect 6 0 21 0;
#X connect 6 0 22 0;
#X connect 6 0 24 0;
#X connect 7 0 17 0;
#X connect 7 0 9 0;
#X connect 7 0 18 0;
#X connect 7 0 19 0;
#X connect 7 0 20 0;
#X connect 7 0 21 0;
#X connect 7 0 22 0;
#X connect 7 0 23 0;
#X connect 8 0 32 0;
#X connect 9 0 8 0;
#X connect 10 0 8 0;
#X connect 11 0 25 0;
#X connect 12 0 26 0;
#X connect 13 0 27 0;
#X connect 14 0 28 0;
#X connect 15 0 29 0;
#X connect 16 0 30 0;
#X connect 17 0 31 0;
#X connect 18 0 25 0;
#X connect 19 0 26 0;
#X connect 20 0 27 0;
#X connect 21 0 28 0;
#X connect 22 0 29 0;
#X connect 23 0 30 0;
#X connect 24 0 31 0;
#X connect 25 0 33 0;
#X connect 26 0 34 0;
#X connect 27 0 35 0;
#X connect 28 0 36 0;
#X connect 29 0 37 0;
#X connect 30 0 38 0;
#X connect 31 0 39 0;
#X restore 141 53 pd selectOSCValue;
#X obj 15 39 vradio 19 1 0 8 empty empty empty 0 -10 0 12 #fcfcfc #000000 #000000 0;
#X obj 141 20 sel 0 1 2 3 4 5 6 7;
#X text 40 37 accel_x;
#X text 41 57 accel_y;
#X text 42 77 accel_z;
#X text 42 98 accel;
#X text 42 115 gyro_x;
#X text 42 133 gyro_y;
#X text 42 153 gyro_z;
#X obj 108 127 hsl 162 19 0 70 0 0 empty empty Cutoff\ Freq -2 -10 0 12 #fcfcfc #000000 #000000 0 1;
#X obj 105 151 *;
#X obj 170 187 hsl 162 19 0 70 0 0 empty empty Cutoff\ Freq -2 -10 0 12 #fcfcfc #000000 #000000 0 1;
#X obj 167 211 *;
#X obj 245 249 hsl 162 19 0 70 0 0 empty empty Cutoff\ Freq -2 -10 0 12 #fcfcfc #000000 #000000 0 1;
#X obj 242 273 *;
#N canvas 428 362 450 300 mix 0;
#X obj 144 14 inlet;
#X obj 154 24 inlet;
#X obj 164 34 inlet;
#X obj 174 44 inlet;
#X obj 184 54 inlet;
#X obj 194 64 inlet;
#X obj 204 74 inlet;
#X obj 214 84 inlet;
#X obj 100 78 +;
#X obj 125 98 +;
#X obj 150 117 +;
#X obj 176 135 +;
#X obj 100 213 +;
#X obj 100 132 +;
#X obj 150 159 +;
#X obj 100 264 outlet;
#X floatatom 100 237 5 0 0 0 - - - 0;
#X connect 0 0 8 0;
#X connect 1 0 8 1;
#X connect 2 0 9 0;
#X connect 3 0 9 1;
#X connect 4 0 10 0;
#X connect 5 0 10 1;
#X connect 6 0 11 0;
#X connect 7 0 11 1;
#X connect 8 0 13 0;
#X connect 9 0 13 1;
#X connect 10 0 14 0;
#X connect 11 0 14 1;
#X connect 12 0 16 0;
#X connect 13 0 12 0;
#X connect 14 0 12 1;
#X connect 16 0 15 0;
#X coords 0 300 1 299 500 60 0;
#X restore 285 408 pd mix;
#X obj 181 146 r accel_x;
#X obj 243 206 r accel_y;
#X obj 318 268 r accel_z;
#X obj 339 32 hsl 162 19 0 70 0 0 empty empty Cutoff\ Freq -2 -10 0 12 #fcfcfc #000000 #000000 0 1;
#X obj 336 56 *;
#X obj 398 101 hsl 162 19 0 70 0 0 empty empty Cutoff\ Freq -2 -10 0 12 #fcfcfc #000000 #000000 0 1;
#X obj 395 125 *;
#X obj 478 167 hsl 162 19 0 70 0 0 empty empty Cutoff\ Freq -2 -10 0 12 #fcfcfc #000000 #000000 0 1;
#X obj 475 191 *;
#X obj 412 51 r gyro_x;
#X obj 471 120 r gyro_y;
#X obj 551 186 r gyro_z;
#X floatatom 285 493 5 0 0 0 - - - 0;
#X obj 136 393 loadbang;
#X connect 0 0 3 0;
#X connect 1 0 0 0;
#X connect 2 0 4 0;
#X connect 3 0 32 3;
#X connect 4 0 32 7;
#X connect 6 0 2 0;
#X connect 8 0 14 0;
#X connect 8 0 45 0;
#X connect 9 0 8 1;
#X connect 12 0 17 0;
#X connect 13 0 8 0;
#X connect 14 0 15 0;
#X connect 16 0 27 1;
#X connect 16 1 29 1;
#X connect 16 2 31 1;
#X connect 16 3 3 1;
#X connect 16 4 37 1;
#X connect 16 5 39 1;
#X connect 16 6 41 1;
#X connect 16 7 4 1;
#X connect 17 0 18 0;
#X connect 18 0 16 0;
#X connect 18 1 16 1;
#X connect 18 2 16 2;
#X connect 18 3 16 3;
#X connect 18 4 16 4;
#X connect 18 5 16 5;
#X connect 18 6 16 6;
#X connect 18 7 16 7;
#X connect 26 0 27 0;
#X connect 27 0 32 0;
#X connect 28 0 29 0;
#X connect 29 0 32 1;
#X connect 30 0 31 0;
#X connect 31 0 32 2;
#X connect 32 0 13 0;
#X connect 33 0 26 0;
#X connect 34 0 28 0;
#X connect 35 0 30 0;
#X connect 36 0 37 0;
#X connect 37 0 32 4;
#X connect 38 0 39 0;
#X connect 39 0 32 5;
#X connect 40 0 41 0;
#X connect 41 0 32 6;
#X connect 42 0 36 0;
#X connect 43 0 38 0;
#X connect 44 0 40 0;
#X connect 45 0 7 0;
#X connect 46 0 9 0;
