#N canvas 622 23 818 515 12;
#X floatatom 48 65 5 0 0 0 - - - 0;
#X floatatom 244 65 5 0 0 0 - - - 0;
#X text 93 66 start;
#X text 293 69 play duration (ms);
#X obj 48 18 inlet;
#X obj 244 17 inlet;
#X obj 244 242 phasor~;
#X obj 244 176 expr 1/$f1;
#X obj 345 265 samplerate~;
#X obj 305 242 t b;
#X obj 171 299 t b f;
#X obj 243 389 tabread4~ grainArray;
#X obj 583 475 outlet~;
#X obj 299 299 expr $f1 * $f2;
#X obj 244 324 *~;
#X obj 243 358 +~;
#X obj 244 207 expr $f1*$f2;
#X obj 426 111 hsl 162 19 0 2 0 0 empty empty empty -2 -10 0 12 #fcfcfc #000000 #000000 0 1;
#X obj 412 133 t b f;
#X obj 468 16 inlet;
#X obj 244 422 *~;
#X floatatom 388 365 5 0 0 0 - - - 0;
#X obj 457 294 snapshot~;
#X obj 524 201 tgl 19 0 empty empty empty 0 -10 0 12 #fcfcfc #000000 #000000 0 1;
#X obj 524 225 metro 20;
#X obj 529 169 loadbang;
#X floatatom 566 319 5 0 0 0 - - - 0;
#X msg 160 200 1;
#X obj 684 14 inlet;
#X floatatom 352 228 5 0 0 0 - - - 0;
#X obj 352 452 +~;
#X obj 352 476 /~ 2;
#X obj 388 340 expr 1 - pow(($f1 - 0.5)*2 \, 2);
#X obj 509 476 *~;
#X text 687 45 1=ON/0=OFF;
#X obj 397 398 r revmix;
#X obj 313 427 rev2~ 100 90 3000 20;
#X connect 0 0 10 0;
#X connect 0 0 27 0;
#X connect 1 0 7 0;
#X connect 1 0 13 0;
#X connect 4 0 0 0;
#X connect 5 0 1 0;
#X connect 6 0 14 0;
#X connect 6 0 22 0;
#X connect 7 0 9 0;
#X connect 7 0 16 0;
#X connect 8 0 13 1;
#X connect 9 0 8 0;
#X connect 10 0 1 0;
#X connect 10 1 15 1;
#X connect 11 0 20 0;
#X connect 13 0 14 1;
#X connect 14 0 15 0;
#X connect 15 0 11 0;
#X connect 16 0 6 0;
#X connect 16 0 29 0;
#X connect 17 0 18 0;
#X connect 18 0 1 0;
#X connect 18 1 16 1;
#X connect 19 0 17 0;
#X connect 20 0 36 0;
#X connect 21 0 20 1;
#X connect 22 0 26 0;
#X connect 22 0 32 0;
#X connect 23 0 24 0;
#X connect 24 0 22 0;
#X connect 25 0 23 0;
#X connect 27 0 6 1;
#X connect 28 0 33 1;
#X connect 30 0 31 0;
#X connect 31 0 33 0;
#X connect 32 0 21 0;
#X connect 33 0 12 0;
#X connect 35 0 36 2;
#X connect 36 0 30 0;
#X connect 36 1 30 1;
