#N canvas 7 23 1194 737 12;
#X obj 21 9 bng 19 250 50 0 empty empty empty 0 -10 0 12 #fcfcfc #000000 #000000;
#X obj 21 33 openpanel;
#X msg 21 57 read -resize \$1 grainArray;
#X obj 21 81 soundfiler;
#X obj 35 158 /;
#X obj 53 133 samplerate~;
#X floatatom 35 182 8 0 0 0 - - - 0;
#X obj 21 105 t f b;
#X text 96 182 duration;
#X obj 581 659 *~;
#X obj 581 692 dac~;
#X obj 652 625 vsl 10 80 0 2 0 0 empty empty Amp 0 -9 0 12 #fcfcfc #000000 #000000 0 1;
#X obj 662 623 loadbang;
#X msg 270 362 next \$1;
#X msg 452 420 all \$1;
#X obj 455 161 loadbang;
#X obj 466 214 pipe f;
#X obj 270 256 while;
#X floatatom 270 140 15 0 0 0 - - - 0;
#X obj 270 31 bng 19 250 50 0 empty empty empty 0 -10 0 12 #fcfcfc #000000 #000000;
#X floatatom 582 68 12 0 0 0 - - - 0;
#X floatatom 270 83 5 0 0 0 - - - 0;
#X obj 270 60 random 1001;
#X obj 582 21 bng 19 250 50 0 empty empty empty 0 -10 0 12 #fcfcfc #000000 #000000;
#X obj 270 104 expr ($f2 + ($f1 / 1000) * ($f3 - $f2)) * $f4;
#X obj 583 585 lop~;
#X obj 582 633 hip~ 5;
#X obj 548 492 clip~ -1 1;
#X obj 721 48 unpackOSC;
#X obj 721 25 netreceive -u -b 50000;
#X obj 721 95 unpack f f f;
#X obj 720 120 expr sqrt($f1 * $f1 + $f2 * $f2 + $f3 * $f3);
#X obj 720 212 / 70;
#X obj 720 236 * 127;
#X obj 720 260 mtof;
#N canvas 3118 300 470 586 easing 0;
#X obj 37 37 inlet;
#X msg 121 184 0.5;
#X obj 76 234 > 0.001;
#X obj 76 258 tgl 19 0 empty empty empty 0 -10 0 12 #fcfcfc #000000 #000000 0 1;
#X floatatom 135 484 5 0 0 0 - - - 0;
#X obj 37 332 spigot;
#X floatatom 377 299 5 0 0 0 - - - 0;
#X text 179 482 peak;
#X text 416 301 down;
#X obj 377 259 spigot;
#X obj 377 223 - 1;
#X obj 285 303 + 0.001;
#X obj 267 60 loadbang;
#X obj 267 84 tgl 19 0 empty empty empty 0 -10 0 12 #fcfcfc #000000 #000000 0 1;
#X obj 121 149 loadbang;
#X obj 135 455 clip 0 1;
#X obj 135 424 expr $f2-$f3;
#X obj 267 108 metro 10;
#X msg 285 272 0.0003;
#X obj 132 534 outlet;
#X floatatom 337 373 5 0 0 0 - - - 0;
#X connect 0 0 2 0;
#X connect 0 0 5 0;
#X connect 1 0 2 1;
#X connect 2 0 3 0;
#X connect 3 0 5 1;
#X connect 3 0 9 1;
#X connect 3 0 10 0;
#X connect 4 0 19 0;
#X connect 4 0 20 0;
#X connect 5 0 16 1;
#X connect 6 0 11 1;
#X connect 6 0 16 2;
#X connect 9 0 6 0;
#X connect 10 0 9 0;
#X connect 11 0 6 0;
#X connect 12 0 13 0;
#X connect 13 0 17 0;
#X connect 14 0 1 0;
#X connect 15 0 4 0;
#X connect 16 0 15 0;
#X connect 17 0 18 0;
#X connect 17 0 16 0;
#X connect 18 0 11 0;
#X connect 20 0 16 1;
#X connect 20 0 2 1;
#X restore 823 209 pd easing;
#X obj 898 164 routeOSC /ZIGSIM/neonald/ipconfig;
#X obj 968 219 s ipaddress;
#X obj 901 189 unpack s s;
#X obj 815 257 s whooshValue;
#X floatatom 419 346 5 0 0 0 - - - 0;
#X text 596 103 start point;
#X obj 136 115 s L;
#X obj 649 40 r L;
#X obj 419 368 / 1000;
#X obj 466 238 t b;
#X obj 419 391 t b f;
#X text 540 188 for while delay;
#X text 300 237 同時発音数;
#X text 775 650 ドップラー効果 f' = f * ([343.6 - 0] / [343.6 - Vf]);
#X obj 308 171 print;
#X obj 763 506 routeOSC /ZIGSIM/neonald/speed;
#X floatatom 763 554 5 0 0 0 - - - 0;
#X floatatom 763 601 5 0 0 0 - - - 0;
#X msg 514 420 all \$1;
#X obj 582 609 *~ 1;
#X obj 721 343 line~ 0 5;
#X msg 505 186 100;
#X obj 1044 580 hsl 80 12 1 40 0 0 empty empty 1~5 -2 -10 0 12 #fcfcfc #000000 #000000 0 1;
#X obj 814 341 line 0 5;
#X obj 763 625 expr $f1;
#X obj 763 577 expr (343.6 - 0) / (343.6 - $f1 * $f2);
#N canvas 262 191 1178 543 (subpatch) 0;
#N canvas 0 50 450 250 (subpatch) 0;
#X array grainArray 3.3792e+06 float 2;
#X coords 0 1 3.3792e+06 -1 167 100 1 0 0;
#X restore 612 199 graph;
#X obj 614 132 hsl 162 19 0 1 0 0 empty empty empty -2 -10 0 12 #fcfcfc #000000 #000000 0 1;
#X obj 614 153 hsl 162 19 0 1 0 0 empty empty empty -2 -10 0 12 #fcfcfc #000000 #000000 0 1;
#X obj 172 137 r ipaddress;
#X symbolatom 277 51 14 0 0 0 - - - 0;
#X obj 174 170 r whooshValue;
#X obj 314 246 hsl 94 19 0 1 0 0 empty empty empty -2 -10 0 12 #e3c6ff #9c00ff #000000 0 1;
#X text 276 28 IP address;
#X text 325 247 readonly;
#X floatatom 465 217 5 0 0 0 - - - 0;
#X obj 646 27 s grain_range_L;
#X obj 646 68 s grain_range_R;
#X obj 466 170 bng 19 250 50 0 empty empty empty 0 -10 0 12 #fcfcfc #000000 #000000;
#X obj 496 170 bng 19 250 50 0 empty empty empty 0 -10 0 12 #fcfcfc #000000 #000000;
#X obj 526 170 bng 19 250 50 0 empty empty empty 0 -10 0 12 #fcfcfc #000000 #000000;
#X msg 439 53 5;
#X msg 480 53 10;
#X obj 175 217 s voicenum;
#X text 466 154 5;
#X text 494 153 10;
#X text 524 153 50;
#X obj 440 155 cnv 3 3 76 empty empty empty 20 12 0 12 #131255 #404040 0;
#X obj 577 156 cnv 3 3 76 empty empty empty 20 12 0 12 #131255 #404040 0;
#X floatatom 436 243 5 0 0 0 - - - 0;
#X obj 173 268 loadbang;
#X msg 173 292 200;
#X obj 172 327 s grain_length;
#X msg 527 50 50;
#X text 309 223 motion value;
#X text 608 107 target range;
#X text 478 243 grain length(ms);
#X text 462 196 grain amount;
#X obj 335 374 outlet;
#X obj 441 114 bng 19 250 50 0 empty empty empty 0 -10 0 12 #fcfcfc #000000 #000000;
#X text 466 116 open;
#X obj 243 394 inlet;
#X obj 311 294 hsl 100 12 0 2 0 0 empty empty empty -2 -10 0 12 #c7c6ff #0400ff #000000 0 1;
#X text 307 272 pitch bend show;
#X text 324 290 readonly;
#X obj 515 116 bng 20 250 50 0 empty empty empty 0 -10 0 12 #ffc7c6 #000000 #000000;
#X text 542 115 reload;
#X obj 881 62 loadbang;
#X msg 880 98 1000;
#X floatatom 436 266 5 0 0 0 - - - 0;
#X text 480 266 pitch smooth(ms);
#X msg 882 142 450;
#X obj 416 337 s pitch_smooth;
#X text 480 289 pitch strength(ms);
#X obj 440 295 hsl 30 12 0 1 0 0 empty empty empty -2 -10 0 12 #fcfcfc #000000 #000000 0 1;
#X msg 879 205 1;
#X obj 445 370 s pitch_strength;
#X obj 310 108 bng 19 250 50 0 empty empty empty 0 -10 0 12 #fcfcfc #000000 #000000;
#X text 333 108 play original;
#X obj 449 422 tabplay~ grainArray;
#X obj 449 446 hip~ 5;
#X obj 449 470 clip~ -1 1;
#X obj 449 494 dac~;
#X floatatom 312 193 5 0 0 0 - - - 0;
#X obj 330 433 s lop;
#X obj 378 436 s env;
#X text 352 191 release(ms);
#X msg 262 136 stop;
#X obj 313 147 bng 19 250 50 0 empty empty empty 0 -10 0 12 #fcfcfc #000000 #000000;
#X text 304 128 stop;
#X obj 309 174 hsl 100 12 0 100 0 0 empty empty empty -2 -10 0 12 #ffffff #202020 #000000 0 1;
#X text 361 153 rev mix;
#X obj 93 273 s revbmix;
#X connect 1 0 10 0;
#X connect 2 0 11 0;
#X connect 3 0 4 0;
#X connect 5 0 6 0;
#X connect 9 0 17 0;
#X connect 12 0 15 0;
#X connect 13 0 16 0;
#X connect 14 0 27 0;
#X connect 15 0 9 0;
#X connect 16 0 9 0;
#X connect 23 0 26 0;
#X connect 24 0 25 0;
#X connect 25 0 23 0;
#X connect 27 0 9 0;
#X connect 33 0 32 0;
#X connect 35 0 36 0;
#X connect 39 0 23 0;
#X connect 41 0 42 0;
#X connect 41 0 16 0;
#X connect 41 0 45 0;
#X connect 41 0 49 0;
#X connect 42 0 23 0;
#X connect 43 0 46 0;
#X connect 45 0 43 0;
#X connect 48 0 50 0;
#X connect 49 0 48 0;
#X connect 51 0 53 0;
#X connect 53 0 54 0;
#X connect 54 0 55 0;
#X connect 55 0 56 0;
#X connect 55 0 56 1;
#X connect 57 0 58 0;
#X connect 57 0 59 0;
#X connect 61 0 53 0;
#X connect 62 0 61 0;
#X connect 64 0 66 0;
#X coords 0 1 100 -1 493 220 1 300 100;
#X restore 25 505 graph;
#X obj 376 24 r grain_range_L;
#X obj 412 61 r grain_range_R;
#X obj 105 341 while;
#X obj 591 396 == 1;
#X msg 466 262 1;
#X msg 591 420 next \$1;
#X floatatom 137 317 5 0 0 0 - - - 0;
#X msg 105 365 0;
#X msg 105 312 1;
#X obj 116 393 loadbang;
#X obj 76 443 pipe f;
#X msg 115 415 1;
#X floatatom 303 219 5 0 0 0 - - - 0;
#X obj 143 273 expr 100-$f1;
#X obj 186 189 r voicenum;
#X text 32 244 使っていないDSPをOFFにする;
#X text 774 673 ｙ軸加速度からピッチベンド;
#X text 775 700 リリースにだけリバーブを加える;
#X obj 418 308 r grain_length;
#X obj 721 71 routeOSC /ZIGSIM/neonald/accel;
#X obj 718 292 * 2;
#X obj 763 530 unpack f;
#X obj 946 315 *;
#X obj 994 322 hsl 162 19 0 1 0 0 empty empty pitchbend\ strength -2 -10 0 12 #fcfcfc #000000 #000000 0 1;
#X obj 946 357 + 1;
#X floatatom 889 471 5 0 0 0 - - - 0;
#X obj 931 280 unpack f f f;
#X obj 928 255 routeOSC /ZIGSIM/neonald/gravity;
#X obj 889 419 line 0 20;
#X obj 720 144 clip 0 70;
#X obj 722 178 expr if($f1>10 \, $f1 \, 0);
#X msg 270 411 next 0;
#N canvas 330 367 450 300 delay 0;
#X obj 69 37 inlet~;
#X obj 78 234 outlet~;
#X obj 74 100 +~;
#X obj 136 73 delread~ line;
#X obj 42 148 delwrite~ line 2000;
#X obj 208 8 hsl 162 19 0 500 0 0 empty empty empty -2 -10 0 12 #fcfcfc #000000 #000000 0 1;
#X floatatom 205 32 5 0 0 0 - - - 0;
#X obj 139 98 *~;
#X obj 244 88 hsl 162 19 0 1 0 0 empty empty empty -2 -10 0 12 #fcfcfc #000000 #000000 0 1;
#X floatatom 241 112 5 0 0 0 - - - 0;
#X connect 0 0 2 0;
#X connect 2 0 1 0;
#X connect 2 0 4 0;
#X connect 3 0 7 0;
#X connect 5 0 6 0;
#X connect 6 0 3 0;
#X connect 7 0 2 1;
#X connect 8 0 9 0;
#X connect 9 0 7 1;
#X restore 647 537 pd delay;
#X obj 392 449 clone GrainUnit 10;
#X obj 892 446 hsl 162 19 0 2 0 0 empty empty empty -2 -10 0 12 #fcfcfc #000000 #000000 0 1;
#X obj 991 349 * -1;
#X obj 995 391 pack f f;
#X obj 1048 364 r pitch_smooth;
#X obj 1074 65 loadbang;
#X msg 1074 89 1;
#X obj 1038 283 r pitch_strength;
#X obj 718 318 pack f f;
#X obj 803 307 pack f f;
#X obj 728 380 r lop;
#X obj 812 392 r env;
#X connect 0 0 1 0;
#X connect 1 0 2 0;
#X connect 2 0 3 0;
#X connect 3 0 7 0;
#X connect 3 0 42 0;
#X connect 4 0 6 0;
#X connect 5 0 4 1;
#X connect 7 0 4 0;
#X connect 7 1 5 0;
#X connect 9 0 10 0;
#X connect 9 0 10 1;
#X connect 11 0 9 1;
#X connect 12 0 11 0;
#X connect 13 0 96 0;
#X connect 14 0 96 1;
#X connect 15 0 57 0;
#X connect 16 0 45 0;
#X connect 17 0 13 0;
#X connect 17 0 16 0;
#X connect 17 1 71 0;
#X connect 18 0 17 0;
#X connect 18 0 50 0;
#X connect 19 0 22 0;
#X connect 20 0 24 3;
#X connect 21 0 24 0;
#X connect 22 0 21 0;
#X connect 23 0 20 0;
#X connect 24 0 18 0;
#X connect 25 0 55 0;
#X connect 26 0 9 0;
#X connect 27 0 25 0;
#X connect 28 0 36 0;
#X connect 28 0 82 0;
#X connect 28 0 90 0;
#X connect 29 0 28 0;
#X connect 30 0 31 0;
#X connect 30 1 31 1;
#X connect 30 2 31 2;
#X connect 31 0 92 0;
#X connect 32 0 33 0;
#X connect 32 0 39 0;
#X connect 32 0 105 0;
#X connect 33 0 34 0;
#X connect 34 0 83 0;
#X connect 36 0 38 0;
#X connect 38 1 37 0;
#X connect 40 0 44 0;
#X connect 43 0 20 0;
#X connect 44 0 46 0;
#X connect 45 0 22 0;
#X connect 45 0 67 0;
#X connect 46 0 22 0;
#X connect 46 1 14 0;
#X connect 51 0 84 0;
#X connect 52 0 61 0;
#X connect 53 0 60 0;
#X connect 54 0 96 2;
#X connect 55 0 26 0;
#X connect 56 0 25 1;
#X connect 57 0 16 1;
#X connect 58 0 61 1;
#X connect 59 0 55 1;
#X connect 61 0 53 0;
#X connect 62 0 1 0;
#X connect 63 0 24 1;
#X connect 64 0 24 2;
#X connect 65 0 70 0;
#X connect 66 0 68 0;
#X connect 67 0 66 0;
#X connect 68 0 96 3;
#X connect 69 0 65 1;
#X connect 70 0 73 0;
#X connect 70 0 94 0;
#X connect 71 0 65 0;
#X connect 72 0 74 0;
#X connect 73 0 65 0;
#X connect 74 0 73 1;
#X connect 75 0 17 1;
#X connect 76 0 69 0;
#X connect 77 0 76 0;
#X connect 77 0 75 0;
#X connect 81 0 40 0;
#X connect 82 0 30 0;
#X connect 83 0 104 0;
#X connect 84 0 52 0;
#X connect 85 0 98 0;
#X connect 86 0 85 1;
#X connect 87 0 99 0;
#X connect 89 1 85 0;
#X connect 90 0 89 0;
#X connect 91 0 54 0;
#X connect 91 0 97 0;
#X connect 92 0 93 0;
#X connect 93 0 32 0;
#X connect 96 0 27 0;
#X connect 97 0 88 0;
#X connect 97 0 62 0;
#X connect 98 0 87 0;
#X connect 99 0 91 0;
#X connect 100 0 99 1;
#X connect 101 0 102 0;
#X connect 102 0 86 0;
#X connect 103 0 86 0;
#X connect 104 0 56 0;
#X connect 105 0 59 0;
#X connect 106 0 104 1;
#X connect 107 0 105 1;
#X coords 0 -1 1 1 505 230 1 20 500;
