#N canvas 539 23 521 433 12;
#X text 361 70 bang出力 内部でカウンターをセット、 上限行ったら右からbang;
#X obj 88 372 outlet;
#X obj 278 351 outlet;
#X obj 396 22 inlet;
#X floatatom 142 111 5 0 0 0 - - - 0;
#X obj 49 23 inlet;
#X obj 141 295 bng 19 250 50 0 empty empty empty 0 -10 0 12 #fcfcfc #000000 #000000;
#X obj 278 289 bng 19 250 50 0 empty empty empty 0 -10 0 12 #fcfcfc #000000 #000000;
#X obj 195 45 loadbang;
#X msg 195 69 0;
#X obj 287 159 expr $f2+1;
#X text 441 24 limit;
#X text 187 110 i;
#X text 97 24 value;
#X text 300 289 iをリセットしてからBang;
#X text 141 371 valueを流す;
#X obj 49 165 expr if($f2 < $f3 \, $f1 \, -1);
#X obj 49 204 sel -1;
#X floatatom 88 270 7 0 0 0 - - - 0;
#X text 104 204 trueなら右から出力;
#X text 23 230 falseは左;
#X floatatom 71 77 8 0 0 0 - - - 0;
#X obj 193 335 outlet;
#X connect 3 0 16 2;
#X connect 4 0 10 1;
#X connect 4 0 16 1;
#X connect 4 0 22 0;
#X connect 5 0 16 0;
#X connect 5 0 21 0;
#X connect 6 0 10 0;
#X connect 7 0 9 0;
#X connect 7 0 2 0;
#X connect 8 0 9 0;
#X connect 9 0 4 0;
#X connect 10 0 4 0;
#X connect 16 0 17 0;
#X connect 17 0 7 0;
#X connect 17 1 18 0;
#X connect 18 0 1 0;
#X connect 18 0 6 0;
