#N canvas 334 317 515 300 12;
#X obj 50 32 noise~ 1000;
#X obj 50 156 lop~;
#X obj 194 63 * 60;
#X obj 194 87 + 30;
#X obj 194 111 mtof;
#X obj 50 180 hip~ 5;
#X obj 312 120 snapshot~;
#X obj 364 20 tgl 19 0 empty empty empty 0 -10 0 12 #fcfcfc #000000 #000000 0 1;
#X obj 364 44 metro 50;
#X floatatom 391 215 5 0 0 0 - - - 0;
#X obj 194 20 phasor~ 0.5;
#X obj 50 204 *~;
#X obj 50 228 dac~;
#X obj 132 206 hsl 162 19 0 1 0 0 empty empty empty -2 -10 0 12 #fcfcfc #000000 #000000 0 1;
#X obj 312 144 expr pow($f1 - 0.5 \, 2) * 4;
#X floatatom 389 188 5 0 0 0 - - - 0;
#X obj 447 84 loadbang;
#X msg 179 165 0.5;
#X connect 0 0 1 0;
#X connect 1 0 5 0;
#X connect 2 0 3 0;
#X connect 3 0 4 0;
#X connect 4 0 1 1;
#X connect 5 0 11 0;
#X connect 6 0 14 0;
#X connect 6 0 15 0;
#X connect 7 0 8 0;
#X connect 8 0 6 0;
#X connect 10 0 6 0;
#X connect 11 0 12 0;
#X connect 11 0 12 1;
#X connect 13 0 11 1;
#X connect 14 0 9 0;
#X connect 14 0 2 0;
#X connect 16 0 7 0;
#X connect 16 0 17 0;
#X connect 17 0 13 0;
